<mxfile host="Electron" modified="2024-05-15T09:17:27.462Z" agent="Mozilla/5.0 (Windows NT 10.0; Win64; x64) AppleWebKit/537.36 (KHTML, like Gecko) draw.io/24.1.0 Chrome/120.0.6099.109 Electron/28.1.0 Safari/537.36" etag="iL8fr2ftx6PM_MEUAGSb" version="24.1.0" type="device">
  <diagram name="Page-1" id="7e0a89b8-554c-2b80-1dc8-d5c74ca68de4">
    <mxGraphModel dx="1120" dy="572" grid="1" gridSize="10" guides="1" tooltips="1" connect="1" arrows="1" fold="1" page="1" pageScale="1" pageWidth="1100" pageHeight="850" background="none" math="0" shadow="0">
      <root>
        <mxCell id="0" />
        <mxCell id="1" parent="0" />
        <mxCell id="PLWNsztE8Judn4N5iZ9i-6" value="" style="edgeStyle=orthogonalEdgeStyle;rounded=0;orthogonalLoop=1;jettySize=auto;html=1;" edge="1" parent="1" source="PLWNsztE8Judn4N5iZ9i-2">
          <mxGeometry relative="1" as="geometry">
            <mxPoint x="290" y="250" as="targetPoint" />
          </mxGeometry>
        </mxCell>
        <mxCell id="PLWNsztE8Judn4N5iZ9i-2" value="default system state" style="rounded=0;whiteSpace=wrap;html=1;" vertex="1" parent="1">
          <mxGeometry x="230" y="150" width="120" height="60" as="geometry" />
        </mxCell>
        <mxCell id="PLWNsztE8Judn4N5iZ9i-4" value="" style="edgeStyle=orthogonalEdgeStyle;rounded=0;orthogonalLoop=1;jettySize=auto;html=1;" edge="1" parent="1" source="PLWNsztE8Judn4N5iZ9i-3" target="PLWNsztE8Judn4N5iZ9i-2">
          <mxGeometry relative="1" as="geometry" />
        </mxCell>
        <mxCell id="PLWNsztE8Judn4N5iZ9i-3" value="" style="ellipse;whiteSpace=wrap;html=1;aspect=fixed;" vertex="1" parent="1">
          <mxGeometry x="280" y="70" width="20" height="20" as="geometry" />
        </mxCell>
        <mxCell id="PLWNsztE8Judn4N5iZ9i-15" value="" style="edgeStyle=orthogonalEdgeStyle;rounded=0;orthogonalLoop=1;jettySize=auto;html=1;" edge="1" parent="1" source="PLWNsztE8Judn4N5iZ9i-13" target="PLWNsztE8Judn4N5iZ9i-14">
          <mxGeometry relative="1" as="geometry" />
        </mxCell>
        <mxCell id="PLWNsztE8Judn4N5iZ9i-13" value="Store previous button state =1" style="rounded=1;whiteSpace=wrap;html=1;" vertex="1" parent="1">
          <mxGeometry x="230" y="250" width="120" height="60" as="geometry" />
        </mxCell>
        <mxCell id="PLWNsztE8Judn4N5iZ9i-19" value="" style="edgeStyle=orthogonalEdgeStyle;rounded=0;orthogonalLoop=1;jettySize=auto;html=1;" edge="1" parent="1" source="PLWNsztE8Judn4N5iZ9i-14" target="PLWNsztE8Judn4N5iZ9i-18">
          <mxGeometry relative="1" as="geometry" />
        </mxCell>
        <mxCell id="PLWNsztE8Judn4N5iZ9i-14" value="button pressed" style="rhombus;whiteSpace=wrap;html=1;rounded=1;" vertex="1" parent="1">
          <mxGeometry x="245" y="350" width="90" height="75" as="geometry" />
        </mxCell>
        <mxCell id="PLWNsztE8Judn4N5iZ9i-16" value="" style="endArrow=classic;html=1;rounded=0;exitX=0;exitY=0.5;exitDx=0;exitDy=0;" edge="1" parent="1" source="PLWNsztE8Judn4N5iZ9i-14">
          <mxGeometry width="50" height="50" relative="1" as="geometry">
            <mxPoint x="520" y="320" as="sourcePoint" />
            <mxPoint x="220" y="280" as="targetPoint" />
            <Array as="points">
              <mxPoint x="180" y="388" />
              <mxPoint x="180" y="280" />
            </Array>
          </mxGeometry>
        </mxCell>
        <mxCell id="PLWNsztE8Judn4N5iZ9i-17" value="FALSE" style="edgeLabel;html=1;align=center;verticalAlign=middle;resizable=0;points=[];" vertex="1" connectable="0" parent="PLWNsztE8Judn4N5iZ9i-16">
          <mxGeometry x="0.108" y="-2" relative="1" as="geometry">
            <mxPoint as="offset" />
          </mxGeometry>
        </mxCell>
        <mxCell id="PLWNsztE8Judn4N5iZ9i-21" value="" style="edgeStyle=orthogonalEdgeStyle;rounded=0;orthogonalLoop=1;jettySize=auto;html=1;" edge="1" parent="1" source="PLWNsztE8Judn4N5iZ9i-18" target="PLWNsztE8Judn4N5iZ9i-20">
          <mxGeometry relative="1" as="geometry" />
        </mxCell>
        <mxCell id="PLWNsztE8Judn4N5iZ9i-18" value="Capture current time" style="whiteSpace=wrap;html=1;rounded=1;" vertex="1" parent="1">
          <mxGeometry x="400" y="357.5" width="120" height="60" as="geometry" />
        </mxCell>
        <mxCell id="PLWNsztE8Judn4N5iZ9i-23" value="" style="edgeStyle=orthogonalEdgeStyle;rounded=0;orthogonalLoop=1;jettySize=auto;html=1;" edge="1" parent="1" source="PLWNsztE8Judn4N5iZ9i-20" target="PLWNsztE8Judn4N5iZ9i-22">
          <mxGeometry relative="1" as="geometry" />
        </mxCell>
        <mxCell id="PLWNsztE8Judn4N5iZ9i-30" value="FALSE" style="edgeLabel;html=1;align=center;verticalAlign=middle;resizable=0;points=[];" vertex="1" connectable="0" parent="PLWNsztE8Judn4N5iZ9i-23">
          <mxGeometry x="-0.3176" y="1" relative="1" as="geometry">
            <mxPoint y="1" as="offset" />
          </mxGeometry>
        </mxCell>
        <mxCell id="PLWNsztE8Judn4N5iZ9i-27" value="" style="edgeStyle=orthogonalEdgeStyle;rounded=0;orthogonalLoop=1;jettySize=auto;html=1;" edge="1" parent="1" source="PLWNsztE8Judn4N5iZ9i-20">
          <mxGeometry relative="1" as="geometry">
            <mxPoint x="660" y="480" as="targetPoint" />
          </mxGeometry>
        </mxCell>
        <mxCell id="PLWNsztE8Judn4N5iZ9i-32" value="TRUE" style="edgeLabel;html=1;align=center;verticalAlign=middle;resizable=0;points=[];" vertex="1" connectable="0" parent="PLWNsztE8Judn4N5iZ9i-27">
          <mxGeometry x="-0.0667" y="2" relative="1" as="geometry">
            <mxPoint y="1" as="offset" />
          </mxGeometry>
        </mxCell>
        <mxCell id="PLWNsztE8Judn4N5iZ9i-20" value="20ms passed" style="rhombus;whiteSpace=wrap;html=1;rounded=1;" vertex="1" parent="1">
          <mxGeometry x="620" y="347.5" width="80" height="80" as="geometry" />
        </mxCell>
        <mxCell id="PLWNsztE8Judn4N5iZ9i-22" value="Dont read signal, ignore state updates" style="whiteSpace=wrap;html=1;rounded=1;" vertex="1" parent="1">
          <mxGeometry x="600" y="250" width="120" height="60" as="geometry" />
        </mxCell>
        <mxCell id="PLWNsztE8Judn4N5iZ9i-35" value="" style="edgeStyle=orthogonalEdgeStyle;rounded=0;orthogonalLoop=1;jettySize=auto;html=1;" edge="1" parent="1" source="PLWNsztE8Judn4N5iZ9i-33" target="PLWNsztE8Judn4N5iZ9i-34">
          <mxGeometry relative="1" as="geometry" />
        </mxCell>
        <mxCell id="PLWNsztE8Judn4N5iZ9i-36" value="FALSE" style="edgeLabel;html=1;align=center;verticalAlign=middle;resizable=0;points=[];" vertex="1" connectable="0" parent="PLWNsztE8Judn4N5iZ9i-35">
          <mxGeometry x="-0.1167" y="2" relative="1" as="geometry">
            <mxPoint as="offset" />
          </mxGeometry>
        </mxCell>
        <mxCell id="PLWNsztE8Judn4N5iZ9i-38" value="" style="edgeStyle=orthogonalEdgeStyle;rounded=0;orthogonalLoop=1;jettySize=auto;html=1;" edge="1" parent="1" source="PLWNsztE8Judn4N5iZ9i-33" target="PLWNsztE8Judn4N5iZ9i-37">
          <mxGeometry relative="1" as="geometry" />
        </mxCell>
        <mxCell id="PLWNsztE8Judn4N5iZ9i-42" value="TRUE" style="edgeLabel;html=1;align=center;verticalAlign=middle;resizable=0;points=[];" vertex="1" connectable="0" parent="PLWNsztE8Judn4N5iZ9i-38">
          <mxGeometry x="-0.1833" relative="1" as="geometry">
            <mxPoint as="offset" />
          </mxGeometry>
        </mxCell>
        <mxCell id="PLWNsztE8Judn4N5iZ9i-33" value="&lt;font style=&quot;font-size: 10px;&quot;&gt;previous button state ==1 and pin signal =0&lt;/font&gt;" style="rhombus;whiteSpace=wrap;html=1;" vertex="1" parent="1">
          <mxGeometry x="605" y="480" width="110" height="110" as="geometry" />
        </mxCell>
        <mxCell id="PLWNsztE8Judn4N5iZ9i-40" value="" style="edgeStyle=orthogonalEdgeStyle;rounded=0;orthogonalLoop=1;jettySize=auto;html=1;" edge="1" parent="1" source="PLWNsztE8Judn4N5iZ9i-34" target="PLWNsztE8Judn4N5iZ9i-39">
          <mxGeometry relative="1" as="geometry" />
        </mxCell>
        <mxCell id="PLWNsztE8Judn4N5iZ9i-41" value="TRUE" style="edgeLabel;html=1;align=center;verticalAlign=middle;resizable=0;points=[];" vertex="1" connectable="0" parent="PLWNsztE8Judn4N5iZ9i-40">
          <mxGeometry x="-0.3714" relative="1" as="geometry">
            <mxPoint as="offset" />
          </mxGeometry>
        </mxCell>
        <mxCell id="PLWNsztE8Judn4N5iZ9i-34" value="&lt;font style=&quot;font-size: 10px;&quot;&gt;previous button state =0 and pin signal = 1&lt;/font&gt;" style="rhombus;whiteSpace=wrap;html=1;" vertex="1" parent="1">
          <mxGeometry x="840" y="491.25" width="100" height="87.5" as="geometry" />
        </mxCell>
        <mxCell id="PLWNsztE8Judn4N5iZ9i-37" value="button state =0&lt;div&gt;-&amp;gt; register button pressed&lt;/div&gt;&lt;div&gt;*capture current time&lt;/div&gt;" style="whiteSpace=wrap;html=1;" vertex="1" parent="1">
          <mxGeometry x="600" y="630" width="120" height="60" as="geometry" />
        </mxCell>
        <mxCell id="PLWNsztE8Judn4N5iZ9i-39" value="button state =1&lt;div&gt;capture current time&lt;/div&gt;" style="whiteSpace=wrap;html=1;" vertex="1" parent="1">
          <mxGeometry x="830" y="630" width="120" height="60" as="geometry" />
        </mxCell>
        <mxCell id="PLWNsztE8Judn4N5iZ9i-44" value="stable low state" style="text;strokeColor=none;fillColor=none;html=1;fontSize=24;fontStyle=1;verticalAlign=middle;align=center;" vertex="1" parent="1">
          <mxGeometry x="615" y="710" width="100" height="40" as="geometry" />
        </mxCell>
        <mxCell id="PLWNsztE8Judn4N5iZ9i-46" value="&lt;span style=&quot;color: rgb(0, 0, 0); font-family: Helvetica; font-size: 24px; font-style: normal; font-variant-ligatures: normal; font-variant-caps: normal; font-weight: 700; letter-spacing: normal; orphans: 2; text-align: center; text-indent: 0px; text-transform: none; widows: 2; word-spacing: 0px; -webkit-text-stroke-width: 0px; white-space: nowrap; background-color: rgb(251, 251, 251); text-decoration-thickness: initial; text-decoration-style: initial; text-decoration-color: initial; display: inline !important; float: none;&quot;&gt;stable high&amp;nbsp;&lt;/span&gt;&lt;span style=&quot;font-size: 24px; font-weight: 700; text-align: center; text-wrap: nowrap;&quot;&gt;state&lt;/span&gt;" style="text;whiteSpace=wrap;html=1;" vertex="1" parent="1">
          <mxGeometry x="810" y="705" width="210" height="50" as="geometry" />
        </mxCell>
      </root>
    </mxGraphModel>
  </diagram>
</mxfile>
